<mxfile host="app.diagrams.net" agent="Mozilla/5.0 (Windows NT 10.0; Win64; x64) AppleWebKit/537.36 (KHTML, like Gecko) Chrome/136.0.0.0 Safari/537.36 Edg/136.0.0.0" version="27.1.1">
  <diagram name="PÃ¡gina-1" id="8o_d95FJBN3x6Zj9qo_p">
    <mxGraphModel dx="1418" dy="828" grid="1" gridSize="10" guides="1" tooltips="1" connect="1" arrows="1" fold="1" page="1" pageScale="1" pageWidth="1169" pageHeight="827" math="0" shadow="0">
      <root>
        <mxCell id="0" />
        <mxCell id="1" parent="0" />
        <mxCell id="gPjhpHCrUUdh-xqwDhav-3" style="edgeStyle=orthogonalEdgeStyle;rounded=0;orthogonalLoop=1;jettySize=auto;html=1;exitX=0.5;exitY=1;exitDx=0;exitDy=0;entryX=0.5;entryY=0;entryDx=0;entryDy=0;" parent="1" source="gPjhpHCrUUdh-xqwDhav-1" target="gPjhpHCrUUdh-xqwDhav-2" edge="1">
          <mxGeometry relative="1" as="geometry" />
        </mxCell>
        <mxCell id="gPjhpHCrUUdh-xqwDhav-1" value="INICIO" style="rounded=1;whiteSpace=wrap;html=1;" parent="1" vertex="1">
          <mxGeometry x="80" y="40" width="90" height="40" as="geometry" />
        </mxCell>
        <mxCell id="qgf1JjqIgyWwdU3Tuipz-2" style="edgeStyle=orthogonalEdgeStyle;rounded=0;orthogonalLoop=1;jettySize=auto;html=1;exitX=0.5;exitY=1;exitDx=0;exitDy=0;entryX=0.5;entryY=0;entryDx=0;entryDy=0;" edge="1" parent="1" source="gPjhpHCrUUdh-xqwDhav-2" target="qgf1JjqIgyWwdU3Tuipz-1">
          <mxGeometry relative="1" as="geometry" />
        </mxCell>
        <mxCell id="gPjhpHCrUUdh-xqwDhav-2" value="n1,n2,n3" style="rounded=0;whiteSpace=wrap;html=1;" parent="1" vertex="1">
          <mxGeometry x="65" y="120" width="120" height="40" as="geometry" />
        </mxCell>
        <mxCell id="qgf1JjqIgyWwdU3Tuipz-8" style="edgeStyle=orthogonalEdgeStyle;rounded=0;orthogonalLoop=1;jettySize=auto;html=1;" edge="1" parent="1" source="qgf1JjqIgyWwdU3Tuipz-1" target="qgf1JjqIgyWwdU3Tuipz-3">
          <mxGeometry relative="1" as="geometry" />
        </mxCell>
        <mxCell id="qgf1JjqIgyWwdU3Tuipz-1" value="Digite 1N" style="shape=document;whiteSpace=wrap;html=1;boundedLbl=1;" vertex="1" parent="1">
          <mxGeometry x="100" y="200" width="50" height="40" as="geometry" />
        </mxCell>
        <mxCell id="qgf1JjqIgyWwdU3Tuipz-9" style="edgeStyle=orthogonalEdgeStyle;rounded=0;orthogonalLoop=1;jettySize=auto;html=1;entryX=0.5;entryY=0;entryDx=0;entryDy=0;" edge="1" parent="1" source="qgf1JjqIgyWwdU3Tuipz-3" target="qgf1JjqIgyWwdU3Tuipz-4">
          <mxGeometry relative="1" as="geometry" />
        </mxCell>
        <mxCell id="qgf1JjqIgyWwdU3Tuipz-3" value="n1" style="shape=parallelogram;perimeter=parallelogramPerimeter;whiteSpace=wrap;html=1;fixedSize=1;" vertex="1" parent="1">
          <mxGeometry x="65" y="280" width="120" height="40" as="geometry" />
        </mxCell>
        <mxCell id="qgf1JjqIgyWwdU3Tuipz-10" style="edgeStyle=orthogonalEdgeStyle;rounded=0;orthogonalLoop=1;jettySize=auto;html=1;" edge="1" parent="1" source="qgf1JjqIgyWwdU3Tuipz-4" target="qgf1JjqIgyWwdU3Tuipz-5">
          <mxGeometry relative="1" as="geometry" />
        </mxCell>
        <mxCell id="qgf1JjqIgyWwdU3Tuipz-4" value="Digite 2n" style="shape=document;whiteSpace=wrap;html=1;boundedLbl=1;" vertex="1" parent="1">
          <mxGeometry x="65" y="360" width="120" height="40" as="geometry" />
        </mxCell>
        <mxCell id="qgf1JjqIgyWwdU3Tuipz-11" style="edgeStyle=orthogonalEdgeStyle;rounded=0;orthogonalLoop=1;jettySize=auto;html=1;" edge="1" parent="1" source="qgf1JjqIgyWwdU3Tuipz-5" target="qgf1JjqIgyWwdU3Tuipz-6">
          <mxGeometry relative="1" as="geometry" />
        </mxCell>
        <mxCell id="qgf1JjqIgyWwdU3Tuipz-5" value="n2" style="shape=parallelogram;perimeter=parallelogramPerimeter;whiteSpace=wrap;html=1;fixedSize=1;" vertex="1" parent="1">
          <mxGeometry x="65" y="440" width="120" height="40" as="geometry" />
        </mxCell>
        <mxCell id="qgf1JjqIgyWwdU3Tuipz-12" style="edgeStyle=orthogonalEdgeStyle;rounded=0;orthogonalLoop=1;jettySize=auto;html=1;entryX=0.5;entryY=0;entryDx=0;entryDy=0;" edge="1" parent="1" source="qgf1JjqIgyWwdU3Tuipz-6" target="qgf1JjqIgyWwdU3Tuipz-7">
          <mxGeometry relative="1" as="geometry" />
        </mxCell>
        <mxCell id="qgf1JjqIgyWwdU3Tuipz-6" value="Digite 3n&lt;div&gt;&lt;br&gt;&lt;/div&gt;" style="shape=document;whiteSpace=wrap;html=1;boundedLbl=1;" vertex="1" parent="1">
          <mxGeometry x="65" y="520" width="120" height="40" as="geometry" />
        </mxCell>
        <mxCell id="qgf1JjqIgyWwdU3Tuipz-29" style="edgeStyle=orthogonalEdgeStyle;rounded=0;orthogonalLoop=1;jettySize=auto;html=1;entryX=0.5;entryY=0;entryDx=0;entryDy=0;" edge="1" parent="1" source="qgf1JjqIgyWwdU3Tuipz-7" target="qgf1JjqIgyWwdU3Tuipz-25">
          <mxGeometry relative="1" as="geometry" />
        </mxCell>
        <mxCell id="qgf1JjqIgyWwdU3Tuipz-7" value="n3" style="shape=parallelogram;perimeter=parallelogramPerimeter;whiteSpace=wrap;html=1;fixedSize=1;" vertex="1" parent="1">
          <mxGeometry x="65" y="600" width="120" height="40" as="geometry" />
        </mxCell>
        <mxCell id="qgf1JjqIgyWwdU3Tuipz-25" value="" style="ellipse;whiteSpace=wrap;html=1;aspect=fixed;" vertex="1" parent="1">
          <mxGeometry x="115" y="690" width="20" height="20" as="geometry" />
        </mxCell>
        <mxCell id="qgf1JjqIgyWwdU3Tuipz-143" style="edgeStyle=orthogonalEdgeStyle;rounded=0;orthogonalLoop=1;jettySize=auto;html=1;entryX=0.5;entryY=0;entryDx=0;entryDy=0;" edge="1" parent="1" source="qgf1JjqIgyWwdU3Tuipz-31" target="qgf1JjqIgyWwdU3Tuipz-52">
          <mxGeometry relative="1" as="geometry" />
        </mxCell>
        <mxCell id="qgf1JjqIgyWwdU3Tuipz-31" value="" style="ellipse;whiteSpace=wrap;html=1;aspect=fixed;" vertex="1" parent="1">
          <mxGeometry x="347" y="70" width="20" height="20" as="geometry" />
        </mxCell>
        <mxCell id="qgf1JjqIgyWwdU3Tuipz-59" style="edgeStyle=orthogonalEdgeStyle;rounded=0;orthogonalLoop=1;jettySize=auto;html=1;exitX=1;exitY=0.5;exitDx=0;exitDy=0;entryX=0.5;entryY=0;entryDx=0;entryDy=0;" edge="1" parent="1" source="qgf1JjqIgyWwdU3Tuipz-52" target="qgf1JjqIgyWwdU3Tuipz-57">
          <mxGeometry relative="1" as="geometry" />
        </mxCell>
        <mxCell id="qgf1JjqIgyWwdU3Tuipz-70" style="edgeStyle=orthogonalEdgeStyle;rounded=0;orthogonalLoop=1;jettySize=auto;html=1;exitX=0;exitY=0.5;exitDx=0;exitDy=0;entryX=0;entryY=0.5;entryDx=0;entryDy=0;" edge="1" parent="1" source="qgf1JjqIgyWwdU3Tuipz-52" target="qgf1JjqIgyWwdU3Tuipz-54">
          <mxGeometry relative="1" as="geometry">
            <mxPoint x="274.5" y="410" as="targetPoint" />
          </mxGeometry>
        </mxCell>
        <mxCell id="qgf1JjqIgyWwdU3Tuipz-52" value="&lt;span style=&quot;text-wrap-mode: nowrap;&quot;&gt;N1&amp;gt;N2 e N1&amp;gt;N3&amp;nbsp;&lt;/span&gt;" style="rhombus;whiteSpace=wrap;html=1;" vertex="1" parent="1">
          <mxGeometry x="303.5" y="120" width="107" height="100" as="geometry" />
        </mxCell>
        <mxCell id="qgf1JjqIgyWwdU3Tuipz-76" style="edgeStyle=orthogonalEdgeStyle;rounded=0;orthogonalLoop=1;jettySize=auto;html=1;entryX=0.5;entryY=0;entryDx=0;entryDy=0;" edge="1" parent="1" source="qgf1JjqIgyWwdU3Tuipz-54" target="qgf1JjqIgyWwdU3Tuipz-72">
          <mxGeometry relative="1" as="geometry">
            <mxPoint x="536.7500000000002" y="410" as="targetPoint" />
          </mxGeometry>
        </mxCell>
        <mxCell id="qgf1JjqIgyWwdU3Tuipz-83" style="edgeStyle=orthogonalEdgeStyle;rounded=0;orthogonalLoop=1;jettySize=auto;html=1;" edge="1" parent="1" source="qgf1JjqIgyWwdU3Tuipz-54" target="qgf1JjqIgyWwdU3Tuipz-82">
          <mxGeometry relative="1" as="geometry" />
        </mxCell>
        <mxCell id="qgf1JjqIgyWwdU3Tuipz-54" value="&lt;span style=&quot;text-wrap-mode: nowrap;&quot;&gt;N2&amp;gt;N1 e N2&amp;gt;N3&lt;/span&gt;" style="rhombus;whiteSpace=wrap;html=1;" vertex="1" parent="1">
          <mxGeometry x="303.5" y="360" width="107" height="100" as="geometry" />
        </mxCell>
        <mxCell id="qgf1JjqIgyWwdU3Tuipz-69" style="edgeStyle=orthogonalEdgeStyle;rounded=0;orthogonalLoop=1;jettySize=auto;html=1;entryX=0.5;entryY=0;entryDx=0;entryDy=0;" edge="1" parent="1" source="qgf1JjqIgyWwdU3Tuipz-57" target="qgf1JjqIgyWwdU3Tuipz-67">
          <mxGeometry relative="1" as="geometry">
            <mxPoint x="354.5" y="230" as="targetPoint" />
          </mxGeometry>
        </mxCell>
        <mxCell id="qgf1JjqIgyWwdU3Tuipz-96" style="edgeStyle=orthogonalEdgeStyle;rounded=0;orthogonalLoop=1;jettySize=auto;html=1;" edge="1" parent="1" source="qgf1JjqIgyWwdU3Tuipz-57" target="qgf1JjqIgyWwdU3Tuipz-58">
          <mxGeometry relative="1" as="geometry" />
        </mxCell>
        <mxCell id="qgf1JjqIgyWwdU3Tuipz-57" value="N2 &amp;gt; N3" style="rhombus;whiteSpace=wrap;html=1;" vertex="1" parent="1">
          <mxGeometry x="434.5" y="190" width="80" height="80" as="geometry" />
        </mxCell>
        <mxCell id="qgf1JjqIgyWwdU3Tuipz-102" style="edgeStyle=orthogonalEdgeStyle;rounded=0;orthogonalLoop=1;jettySize=auto;html=1;" edge="1" parent="1" source="qgf1JjqIgyWwdU3Tuipz-58" target="qgf1JjqIgyWwdU3Tuipz-99">
          <mxGeometry relative="1" as="geometry">
            <mxPoint x="1100" y="420" as="targetPoint" />
            <Array as="points" />
          </mxGeometry>
        </mxCell>
        <mxCell id="qgf1JjqIgyWwdU3Tuipz-58" value="Print N3,N2,N1" style="shape=document;whiteSpace=wrap;html=1;boundedLbl=1;" vertex="1" parent="1">
          <mxGeometry x="540" y="280" width="100" height="40" as="geometry" />
        </mxCell>
        <mxCell id="qgf1JjqIgyWwdU3Tuipz-146" style="edgeStyle=orthogonalEdgeStyle;rounded=0;orthogonalLoop=1;jettySize=auto;html=1;entryX=0.625;entryY=0.95;entryDx=0;entryDy=0;entryPerimeter=0;" edge="1" parent="1" source="qgf1JjqIgyWwdU3Tuipz-67" target="qgf1JjqIgyWwdU3Tuipz-99">
          <mxGeometry relative="1" as="geometry">
            <mxPoint x="1120" y="350" as="targetPoint" />
            <Array as="points">
              <mxPoint x="354" y="350" />
              <mxPoint x="1120" y="350" />
            </Array>
          </mxGeometry>
        </mxCell>
        <mxCell id="qgf1JjqIgyWwdU3Tuipz-67" value="Print N2,N3,N1" style="shape=document;whiteSpace=wrap;html=1;boundedLbl=1;" vertex="1" parent="1">
          <mxGeometry x="303.5" y="280" width="100" height="40" as="geometry" />
        </mxCell>
        <mxCell id="qgf1JjqIgyWwdU3Tuipz-94" style="edgeStyle=orthogonalEdgeStyle;rounded=0;orthogonalLoop=1;jettySize=auto;html=1;entryX=0.5;entryY=0;entryDx=0;entryDy=0;" edge="1" parent="1" source="qgf1JjqIgyWwdU3Tuipz-72" target="qgf1JjqIgyWwdU3Tuipz-75">
          <mxGeometry relative="1" as="geometry">
            <mxPoint x="760.0000000000002" y="480" as="targetPoint" />
          </mxGeometry>
        </mxCell>
        <mxCell id="qgf1JjqIgyWwdU3Tuipz-95" style="edgeStyle=orthogonalEdgeStyle;rounded=0;orthogonalLoop=1;jettySize=auto;html=1;entryX=0.5;entryY=0;entryDx=0;entryDy=0;" edge="1" parent="1" source="qgf1JjqIgyWwdU3Tuipz-72" target="qgf1JjqIgyWwdU3Tuipz-78">
          <mxGeometry relative="1" as="geometry">
            <mxPoint x="500" y="480" as="targetPoint" />
          </mxGeometry>
        </mxCell>
        <mxCell id="qgf1JjqIgyWwdU3Tuipz-72" value="N1 &amp;gt; N3" style="rhombus;whiteSpace=wrap;html=1;" vertex="1" parent="1">
          <mxGeometry x="591" y="440" width="80" height="80" as="geometry" />
        </mxCell>
        <mxCell id="qgf1JjqIgyWwdU3Tuipz-106" style="edgeStyle=orthogonalEdgeStyle;rounded=0;orthogonalLoop=1;jettySize=auto;html=1;entryX=0;entryY=1;entryDx=0;entryDy=0;" edge="1" parent="1" source="qgf1JjqIgyWwdU3Tuipz-75" target="qgf1JjqIgyWwdU3Tuipz-99">
          <mxGeometry relative="1" as="geometry">
            <mxPoint x="1100" y="420" as="targetPoint" />
          </mxGeometry>
        </mxCell>
        <mxCell id="qgf1JjqIgyWwdU3Tuipz-75" value="Print N3,N1,N2" style="shape=document;whiteSpace=wrap;html=1;boundedLbl=1;" vertex="1" parent="1">
          <mxGeometry x="700" y="520" width="100" height="40" as="geometry" />
        </mxCell>
        <mxCell id="qgf1JjqIgyWwdU3Tuipz-105" style="edgeStyle=orthogonalEdgeStyle;rounded=0;orthogonalLoop=1;jettySize=auto;html=1;" edge="1" parent="1" source="qgf1JjqIgyWwdU3Tuipz-78" target="qgf1JjqIgyWwdU3Tuipz-99">
          <mxGeometry relative="1" as="geometry">
            <mxPoint x="1100" y="420" as="targetPoint" />
            <Array as="points">
              <mxPoint x="510" y="590" />
              <mxPoint x="1100" y="590" />
            </Array>
          </mxGeometry>
        </mxCell>
        <mxCell id="qgf1JjqIgyWwdU3Tuipz-78" value="Print N1,N3,N2" style="shape=document;whiteSpace=wrap;html=1;boundedLbl=1;" vertex="1" parent="1">
          <mxGeometry x="460" y="520" width="100" height="40" as="geometry" />
        </mxCell>
        <mxCell id="qgf1JjqIgyWwdU3Tuipz-89" style="edgeStyle=orthogonalEdgeStyle;rounded=0;orthogonalLoop=1;jettySize=auto;html=1;exitX=1;exitY=0.5;exitDx=0;exitDy=0;entryX=0.5;entryY=0;entryDx=0;entryDy=0;" edge="1" parent="1" source="qgf1JjqIgyWwdU3Tuipz-82" target="qgf1JjqIgyWwdU3Tuipz-86">
          <mxGeometry relative="1" as="geometry" />
        </mxCell>
        <mxCell id="qgf1JjqIgyWwdU3Tuipz-90" style="edgeStyle=orthogonalEdgeStyle;rounded=0;orthogonalLoop=1;jettySize=auto;html=1;exitX=0;exitY=0.5;exitDx=0;exitDy=0;entryX=0.5;entryY=0;entryDx=0;entryDy=0;" edge="1" parent="1" source="qgf1JjqIgyWwdU3Tuipz-82" target="qgf1JjqIgyWwdU3Tuipz-87">
          <mxGeometry relative="1" as="geometry" />
        </mxCell>
        <mxCell id="qgf1JjqIgyWwdU3Tuipz-82" value="N1 &amp;gt; N2" style="rhombus;whiteSpace=wrap;html=1;" vertex="1" parent="1">
          <mxGeometry x="317" y="520" width="80" height="80" as="geometry" />
        </mxCell>
        <mxCell id="qgf1JjqIgyWwdU3Tuipz-104" style="edgeStyle=orthogonalEdgeStyle;rounded=0;orthogonalLoop=1;jettySize=auto;html=1;entryX=0.4;entryY=1.05;entryDx=0;entryDy=0;entryPerimeter=0;" edge="1" parent="1" source="qgf1JjqIgyWwdU3Tuipz-86" target="qgf1JjqIgyWwdU3Tuipz-99">
          <mxGeometry relative="1" as="geometry">
            <mxPoint x="1100" y="420" as="targetPoint" />
          </mxGeometry>
        </mxCell>
        <mxCell id="qgf1JjqIgyWwdU3Tuipz-86" value="Print N2,N1,N3" style="shape=document;whiteSpace=wrap;html=1;boundedLbl=1;" vertex="1" parent="1">
          <mxGeometry x="382.5" y="620" width="100" height="40" as="geometry" />
        </mxCell>
        <mxCell id="qgf1JjqIgyWwdU3Tuipz-103" style="edgeStyle=orthogonalEdgeStyle;rounded=0;orthogonalLoop=1;jettySize=auto;html=1;entryX=0.725;entryY=1;entryDx=0;entryDy=0;entryPerimeter=0;" edge="1" parent="1" source="qgf1JjqIgyWwdU3Tuipz-87" target="qgf1JjqIgyWwdU3Tuipz-99">
          <mxGeometry relative="1" as="geometry">
            <mxPoint x="1100" y="420" as="targetPoint" />
            <Array as="points">
              <mxPoint x="290" y="680" />
              <mxPoint x="1140" y="680" />
              <mxPoint x="1140" y="340" />
            </Array>
          </mxGeometry>
        </mxCell>
        <mxCell id="qgf1JjqIgyWwdU3Tuipz-87" value="Print N1,N2,N3" style="shape=document;whiteSpace=wrap;html=1;boundedLbl=1;" vertex="1" parent="1">
          <mxGeometry x="240" y="620" width="100" height="40" as="geometry" />
        </mxCell>
        <mxCell id="qgf1JjqIgyWwdU3Tuipz-99" value="Fim" style="ellipse;whiteSpace=wrap;html=1;" vertex="1" parent="1">
          <mxGeometry x="1070" y="300" width="80" height="40" as="geometry" />
        </mxCell>
        <mxCell id="qgf1JjqIgyWwdU3Tuipz-148" value="S" style="text;html=1;align=center;verticalAlign=middle;resizable=0;points=[];autosize=1;strokeColor=none;fillColor=none;" vertex="1" parent="1">
          <mxGeometry x="430" y="130" width="30" height="30" as="geometry" />
        </mxCell>
        <mxCell id="qgf1JjqIgyWwdU3Tuipz-149" value="S" style="text;html=1;align=center;verticalAlign=middle;resizable=0;points=[];autosize=1;strokeColor=none;fillColor=none;" vertex="1" parent="1">
          <mxGeometry x="535" y="188" width="30" height="30" as="geometry" />
        </mxCell>
        <mxCell id="qgf1JjqIgyWwdU3Tuipz-151" value="S" style="text;html=1;align=center;verticalAlign=middle;resizable=0;points=[];autosize=1;strokeColor=none;fillColor=none;" vertex="1" parent="1">
          <mxGeometry x="485" y="368" width="30" height="30" as="geometry" />
        </mxCell>
        <mxCell id="qgf1JjqIgyWwdU3Tuipz-152" value="S" style="text;html=1;align=center;verticalAlign=middle;resizable=0;points=[];autosize=1;strokeColor=none;fillColor=none;" vertex="1" parent="1">
          <mxGeometry x="695" y="448" width="30" height="30" as="geometry" />
        </mxCell>
        <mxCell id="qgf1JjqIgyWwdU3Tuipz-153" value="S" style="text;html=1;align=center;verticalAlign=middle;resizable=0;points=[];autosize=1;strokeColor=none;fillColor=none;" vertex="1" parent="1">
          <mxGeometry x="400" y="525" width="30" height="30" as="geometry" />
        </mxCell>
      </root>
    </mxGraphModel>
  </diagram>
</mxfile>
